<svg xmlns="http://www.w3.org/2000/svg" width="820" height="111" viewBox="0 0 820 111" role="img" aria-label="Isolation enforced by Postgres row-level security rather than by application code remembering to filter. ES256 JWTs verified server-side via JWKS.">
  <rect x="0.5" y="0.5" width="819" height="110" fill="#FFFFFF" stroke="#0F172A" stroke-width="1"/>
  <rect x="16.0" y="18" width="89.5" height="26" fill="#F1F5F9" stroke="#94A0AB" stroke-width="1"/>
  <text x="26.0" y="35" font-family="ui-monospace, SFMono-Regular, 'SF Mono', Menlo, Consolas, 'Liberation Mono', monospace" font-size="10.5" fill="#475569">label photo</text>
  <path d="M108.5 31H119.5" stroke="#94A0AB" stroke-width="1"/>
  <path d="M118.5 27.5L124.5 31L118.5 34.5Z" fill="#94A0AB"/>
  <rect x="127.5" y="18" width="152.7" height="26" fill="#FFFFFF" stroke="#0F172A" stroke-width="1"/>
  <text x="137.5" y="35" font-family="ui-monospace, SFMono-Regular, 'SF Mono', Menlo, Consolas, 'Liberation Mono', monospace" font-size="10.5" fill="#0F172A">Gemini, then fallback</text>
  <path d="M283.3 31H294.3" stroke="#94A0AB" stroke-width="1"/>
  <path d="M293.3 27.5L299.3 31L293.3 34.5Z" fill="#94A0AB"/>
  <rect x="302.3" y="18" width="70.6" height="26" fill="#FFFFFF" stroke="#0F172A" stroke-width="1"/>
  <text x="312.3" y="35" font-family="ui-monospace, SFMono-Regular, 'SF Mono', Menlo, Consolas, 'Liberation Mono', monospace" font-size="10.5" fill="#0F172A">validate</text>
  <path d="M375.8 31H386.8" stroke="#94A0AB" stroke-width="1"/>
  <path d="M385.8 27.5L391.8 31L385.8 34.5Z" fill="#94A0AB"/>
  <rect x="394.8" y="18" width="95.9" height="26" fill="#E6F2F4" stroke="#0E6E7D" stroke-width="1"/>
  <text x="404.8" y="35" font-family="ui-monospace, SFMono-Regular, 'SF Mono', Menlo, Consolas, 'Liberation Mono', monospace" font-size="10.5" fill="#0E6E7D">Postgres RLS</text>
  <line x1="16" y1="60" x2="804" y2="60" stroke="#D6DEE5" stroke-width="1" stroke-dasharray="3 3"/>
  <text x="16" y="78" font-family="-apple-system, BlinkMacSystemFont, 'Segoe UI', 'Noto Sans', Helvetica, Arial, sans-serif" font-size="11.5" fill="#475569">Isolation enforced by Postgres row-level security rather than by application code remembering to filter.</text>
  <text x="16" y="93" font-family="-apple-system, BlinkMacSystemFont, 'Segoe UI', 'Noto Sans', Helvetica, Arial, sans-serif" font-size="11.5" fill="#475569">ES256 JWTs verified server-side via JWKS.</text>
  <text x="804" y="78" text-anchor="end" font-family="ui-monospace, SFMono-Regular, 'SF Mono', Menlo, Consolas, 'Liberation Mono', monospace" font-size="9.5" fill="#0E6E7D">FastAPI · Neon · Gemini</text>
</svg>
